<?xml version="1.0" encoding="UTF-8"?><svg xmlns="http://www.w3.org/2000/svg" viewBox="0 0 577.88 199.75"><defs><style>.cls-1{fill:#c99700;stroke:#c99700;}.cls-2{fill:#001a31;}.cls-2,.cls-3{stroke:#0c2340;}.cls-3{fill:none;stroke-width:3.44px;}</style></defs><line class="cls-3" x1="254.3" y1="10.44" x2="254.3" y2="187.82"/><path class="cls-2" d="m288.29,81.95l-1.11-8.8c4.44,4.44,11.16,6.95,16.41,6.95s8.94-2.88,8.94-7.32c0-4.88-4.51-6.8-10.13-9.31-7.91-3.47-13.68-6.95-13.68-14.78s6.21-13.6,16.11-13.6c3.77,0,8.28.96,11.53,2.74l1.11,8.43c-4.29-3.18-8.94-4.58-12.94-4.58-5.54,0-8.5,3.03-8.5,6.65,0,4.88,5.4,6.8,10.79,9.24,7.02,3.03,12.94,6.73,12.94,14.78,0,9.09-7.32,14.34-16.48,14.34-5.17,0-10.28-1.33-15.01-4.73Z"/><path class="cls-2" d="m324.58,61.03c0-15.15,11.09-25.95,25.28-25.95,5.25,0,9.76,1.33,13.3,3.47l.96,8.35c-4.14-3.18-8.72-5.25-13.97-5.25-10.57,0-18.11,8.06-18.11,19.29s7.32,19.37,18.41,19.37c5.4,0,10.79-1.92,14.93-5.25l-1.4,8.13c-3.77,2.44-8.35,3.62-13.68,3.62-15.38,0-25.72-11.31-25.72-25.8Z"/><path class="cls-2" d="m406.63,64.28h-26.46v21.81h-7.24v-50.27h7.24v21.95h26.46v-21.95h7.24v50.27h-7.24v-21.81Z"/><path class="cls-2" d="m422.3,61.03c0-14.86,11.16-25.95,25.35-25.95s25.43,11.09,25.43,25.95-11.16,25.8-25.43,25.8-25.35-10.94-25.35-25.8Zm25.35,19.15c9.31,0,17.89-7.1,17.89-19.15s-8.57-19.29-17.89-19.29-17.89,7.1-17.89,19.29,8.72,19.15,17.89,19.15Z"/><path class="cls-2" d="m478.26,61.03c0-14.86,11.16-25.95,25.35-25.95s25.43,11.09,25.43,25.95-11.16,25.8-25.43,25.8-25.35-10.94-25.35-25.8Zm25.35,19.15c9.31,0,17.89-7.1,17.89-19.15s-8.57-19.29-17.89-19.29-17.89,7.1-17.89,19.29,8.72,19.15,17.89,19.15Z"/><path class="cls-2" d="m537.47,35.82h7.24v43.76h20.77l-1.26,6.5h-26.76v-50.27Z"/><path class="cls-2" d="m287.41,134.94c0-14.86,11.16-25.95,25.35-25.95s25.43,11.09,25.43,25.95-11.16,25.8-25.43,25.8-25.35-10.94-25.35-25.8Zm25.35,19.15c9.31,0,17.89-7.1,17.89-19.15s-8.57-19.29-17.89-19.29-17.89,7.1-17.89,19.29,8.72,19.15,17.89,19.15Z"/><path class="cls-2" d="m345.42,109.73h27.35l1.11,6.51h-21.22v16.04h18.41v6.43h-18.41v21.29h-7.24v-50.27Z"/><path class="cls-2" d="m397.38,109.73h7.24v43.76h20.77l-1.26,6.5h-26.76v-50.27Z"/><path class="cls-2" d="m451.63,109.36h3.03l22.03,50.63h-7.61l-5.54-13.31h-20.77l-5.54,13.31h-7.54l21.95-50.63Zm9.39,31.12l-7.76-18.7h-.15l-7.76,18.7h15.67Z"/><path class="cls-2" d="m471.66,109.73h7.54l12.27,35.78h.22l13.9-36h2.52l13.9,36h.29l11.9-35.78h7.39l-18.04,50.63h-2.66l-14.19-36.15-14.19,36.15h-2.73l-18.11-50.63Z"/><path class="cls-1" d="m180.79,80.06c.25.09.49.17.73.26.17.06.35.12.51.19,2.85,1.05,5.3,2.18,7.34,3.36,4.93,2.9,5.66,3.93,5.66,3.93h21.4s0-31.77,0-31.77h-25.52c0,1.12-.03,2.95-.03,4.14-3.28-1.1-7.11-2.18-11.44-3.2v-10.38h15.55v-21.87l-47.57.04-19.85,26.32c-2.78-.06-5.62-.1-8.54-.1-4.77,0-9.47.12-14.08.35l-19.89-26.57h-47.81v21.83h15.78v13.42c-26.85,8.58-44.24,22.96-44.24,41.86,0,17.75,17.04,33.21,44.24,42.65v7.2h-15.78v21.83h43.6v-22.12s0,0,0,0v-23.64s0,0-.01,0v-44.75c-6.68,1.4-12.87,3.17-18.28,5.28-3.74,1.46-6.9,2.93-9.53,4.35v26.35c-10.76-5.09-17.11-11.17-17.11-17.14,0-3.22,2.02-6.53,5.7-9.71.1-.09.21-.17.31-.26.11-.09.22-.19.34-.28.19-.16.39-.31.59-.47.02-.02.04-.03.06-.05,7.62-5.96,21.03-11.38,37.9-14.78h0c1.72-.36,3.48-.68,5.27-.99h0c10.02-1.68,21.08-2.67,32.76-2.67,29.47,0,49.4,3.02,61.91,7.41Zm-90.32,1.25l25.6,35.25,26.95-36.49c-7.34-.54-15.39-.82-24.13-.82-9.63,0-19.31.7-28.42,2.05Zm104.04,30.85c-1.27,3.1-4.21,5.74-8.22,7.98v24.73c17.15-5.77,29.96-14.37,34.54-26.32-3.49-.56-22.83-5.69-26.32-6.39Zm-15.06,34.8s0,0,0,0v-23.73s0,0,0,0v-36.45c-4.91-1.77-10.92-3.25-17.26-4.4-3.26-.59-6.77-1.09-10.5-1.51v48.66c-11.83,1.6-23.23,2.18-30.01,2.18-12.1,0-23.57-.98-33.97-2.68v23.38c9.34,1.21,19.25,1.87,29.6,1.87,11.64,0,23.29-.64,34.38-1.99v21.26h43.31v-21.83h-15.55v-4.75Z"/></svg>